<svg width="28.000000" height="28.000000" viewBox="0 0 28 28" fill="none" xmlns="http://www.w3.org/2000/svg" xmlns:xlink="http://www.w3.org/1999/xlink">
	<desc>
			Created with Pixso.
	</desc>
	<defs>
		<clipPath id="clip33_134">
			<rect id="mdi_check_box_outline_blank" width="24.000000" height="24.000000" transform="translate(2.000000 2.000000)" fill="white" fill-opacity="0"/>
		</clipPath>
		<clipPath id="clip33_137">
			<rect id="mdi_check_box_outline_blank_hover" rx="3.000000" width="28.000000" height="28.000000" fill="white" fill-opacity="0"/>
		</clipPath>
	</defs>
	<rect id="mdi_check_box_outline_blank_hover" rx="3.000000" width="28.000000" height="28.000000" fill="#E2E7ED" fill-opacity="1.000000"/>
	<g clip-path="url(#clip33_137)">
		<rect id="mdi_check_box_outline_blank" width="24.000000" height="24.000000" transform="translate(2.000000 2.000000)" fill="#FFFFFF" fill-opacity="0"/>
		<g clip-path="url(#clip33_134)">
			<path id="Vector" d="M21 7L21 21L7 21L7 7L21 7ZM21 5L7 5C5.90002 5 5 5.90002 5 7L5 21C5 22.1 5.90002 23 7 23L21 23C22.1 23 23 22.1 23 21L23 14L23 7C23 5.90002 22.1 5 21 5Z" fill="#3B4256" fill-opacity="1.000000" fill-rule="nonzero"/>
		</g>
	</g>
</svg>
